Coordinates
version=1
nRows=11
nColumns=46
inDegrees=yes

Units are S.I. units (second, meters, Newtons, ...)
Angles are in degrees.

endheader
time	pelvis_tilt	pelvis_list	pelvis_rotation	pelvis_tx	pelvis_ty	pelvis_tz	bb_angle	bb_tx	bb_ty	bb_tz	hip_flexion_r	hip_adduction_r	hip_rotation_r	knee_angle_r	knee_angle_r_beta	ankle_angle_r	subtalar_angle_r	mtp_angle_r	crank_angle_r	hip_flexion_l	hip_adduction_l	hip_rotation_l	knee_angle_l	knee_angle_l_beta	ankle_angle_l	subtalar_angle_l	mtp_angle_l	crank_angle_l	lumbar_extension	lumbar_bending	lumbar_rotation	arm_flex_r	arm_add_r	arm_rot_r	elbow_flex_r	pro_sup_r	wrist_flex_r	wrist_dev_r	arm_flex_l	arm_add_l	arm_rot_l	elbow_flex_l	pro_sup_l	wrist_flex_l	wrist_dev_l
      7.50500000	    -19.59463467	      4.70090963	      6.55675888	      0.37371352	      1.13501669	     -0.26309477	      0.00000000	      0.50000000	      0.00000000	      0.25000000	     26.26927902	    -13.86596231	    -12.95392808	     32.99731765	      0.57591184	    -31.37007786	     -3.79126662	      0.00000000	      0.00000000	     79.64593216	      3.99996047	      2.19689285	    110.55930671	      1.92962392	      2.25494429	     -4.91810970	      0.00000000	      0.00000000	    -59.83163946	     -1.74190038	     -9.47198805	     49.65909185	    -17.35642142	     20.55963514	     64.73973079	     50.88757091	      0.00000000	      0.00000000	     51.39539271	    -20.22273078	     28.28115175	     72.56711101	     50.14313898	      0.00000000	      0.00000000
      7.51000000	    -19.55467375	      4.60408468	      6.61797726	      0.37311783	      1.13699564	     -0.26369429	      0.00000000	      0.50000000	      0.00000000	      0.25000000	     26.68507181	    -13.80660416	    -12.43750895	     34.35240284	      0.59956254	    -32.87604988	     -5.25471858	      0.00000000	      0.00000000	     79.34627688	      4.29539082	      2.31503551	    109.27670968	      1.90723838	      3.44122900	     -4.78833866	      0.00000000	      0.00000000	    -60.28789115	     -1.70296026	     -9.59838162	     50.02135487	    -17.31685373	     20.49691927	     64.67712998	     50.87629809	      0.00000000	      0.00000000	     51.63692394	    -20.24302954	     28.13381939	     73.01516293	     50.19605970	      0.00000000	      0.00000000
      7.51500000	    -19.57731088	      4.35596038	      6.54909807	      0.37258445	      1.13862471	     -0.26380298	      0.00000000	      0.50000000	      0.00000000	      0.25000000	     27.29036449	    -13.44298170	    -11.69248251	     35.85603176	      0.62580581	    -34.32112444	     -6.90188677	      0.00000000	      0.00000000	     78.96334163	      4.37803722	      2.62050063	    107.89102310	      1.88305359	      4.73862453	     -4.59888615	      0.00000000	      0.00000000	    -60.65213286	     -1.65678934	     -9.62319473	     50.12835374	    -16.96147756	     19.93923122	     65.04527068	     50.49138659	      0.00000000	      0.00000000	     51.40814134	    -20.27305149	     27.33136123	     73.91696921	     49.98966643	      0.00000000	      0.00000000
      7.52000000	    -19.53451991	      4.14010302	      6.45678243	      0.37199765	      1.14016803	     -0.26389305	      0.00000000	      0.50000000	      0.00000000	      0.25000000	     27.93611996	    -13.08845179	    -10.80874801	     37.60996779	      0.65641777	    -35.31106189	     -8.20229701	      0.00000000	      0.00000000	     78.34030223	      4.45982635	      2.89757554	    106.32446494	      1.85571199	      6.16872345	     -4.52150183	      0.00000000	      0.00000000	    -61.04642023	     -1.57427489	    -10.14961359	     51.20040043	    -16.33955573	     20.95096545	     64.08169906	     49.92561674	      0.00000000	      0.00000000	     50.99598649	    -21.68712532	     27.40046771	     75.78745416	     49.88843588	      0.00000000	      0.00000000
      7.52500000	    -19.51481562	      3.88593545	      6.35621075	      0.37138930	      1.14148741	     -0.26398176	      0.00000000	      0.50000000	      0.00000000	      0.25000000	     28.67919402	    -12.64468623	     -9.85450190	     39.52688665	      0.68987432	    -36.07517898	     -9.56941507	      0.00000000	      0.00000000	     77.62422228	      4.48268354	      3.14357963	    104.58687315	      1.82538529	      7.53855499	     -4.61229784	      0.00000000	      0.00000000	    -61.40860160	     -1.48977500	    -10.22254145	     51.61163319	    -16.03620782	     20.91292084	     64.12657026	     49.59534574	      0.00000000	      0.00000000	     50.76675939	    -22.04357207	     26.85212073	     76.79901880	     49.71685783	      0.00000000	      0.00000000
      7.53000000	    -19.65530057	      3.72224173	      6.22170934	      0.37069254	      1.14228568	     -0.26416611	      0.00000000	      0.50000000	      0.00000000	      0.25000000	     29.74089834	    -12.30163455	     -8.80626244	     41.75097478	      0.72869198	    -36.50056640	    -10.86880920	      0.00000000	      0.00000000	     76.95810421	      4.51249178	      3.28585467	    102.70344503	      1.79251327	      8.62873363	     -4.88262903	      0.00000000	      0.00000000	    -61.59572356	     -1.50381457	    -10.15463806	     51.55963239	    -15.83911829	     20.21959480	     64.81298058	     49.09200812	      0.00000000	      0.00000000	     50.50057771	    -21.83949686	     25.89500325	     77.50974064	     49.33611439	      0.00000000	      0.00000000
      7.53500000	    -19.61045425	      3.60101358	      6.06858081	      0.37012716	      1.14319488	     -0.26439775	      0.00000000	      0.50000000	      0.00000000	      0.25000000	     30.61993342	    -11.98818423	     -7.79551996	     44.07054431	      0.76917610	    -36.57533473	    -11.85242459	      0.00000000	      0.00000000	     75.79606791	      4.98418030	      3.81661342	    100.58825019	      1.75559615	      9.95439512	     -5.34484355	      0.00000000	      0.00000000	    -61.89895845	     -1.53729601	    -10.15579192	     51.93744173	    -15.87857843	     20.47589731	     64.70093217	     49.12428308	      0.00000000	      0.00000000	     50.60557524	    -22.14100599	     26.00130113	     77.88715138	     49.41604126	      0.00000000	      0.00000000
      7.54000000	    -19.61172762	      3.34423143	      5.87727562	      0.36962039	      1.14383624	     -0.26463938	      0.00000000	      0.50000000	      0.00000000	      0.25000000	     31.56908908	    -11.50400170	     -6.82198866	     46.43250701	      0.81040013	    -36.55930985	    -12.66168523	      0.00000000	      0.00000000	     74.54917060	      5.45523235	      4.52044802	     98.31902126	      1.71599064	     11.26172120	     -6.29057668	      0.00000000	      0.00000000	    -62.12680551	     -1.46594618	     -9.98374418	     52.28663673	    -15.89200399	     20.56366257	     64.74236216	     49.15143043	      0.00000000	      0.00000000	     50.61915755	    -22.32315925	     25.95707240	     78.19951413	     49.46772223	      0.00000000	      0.00000000
      7.54500000	    -19.64498913	      3.18583149	      5.70747590	      0.36914238	      1.14434752	     -0.26472413	      0.00000000	      0.50000000	      0.00000000	      0.25000000	     32.58837279	    -11.09569569	     -5.85239417	     48.89542830	      0.85338621	    -36.49330613	    -13.49144199	      0.00000000	      0.00000000	     73.30414929	      5.73358674	      4.96875964	     95.92152311	      1.67414640	     12.12834234	     -7.12469853	      0.00000000	      0.00000000	    -62.32052719	     -1.50105967	     -9.89709093	     52.56576115	    -15.91512265	     20.65898159	     64.82939936	     49.18709961	      0.00000000	      0.00000000	     50.62086685	    -22.50930860	     25.85505099	     78.58787723	     49.52607374	      0.00000000	      0.00000000
      7.55000000	    -19.94325696	      3.22430030	      5.50894112	      0.36865631	      1.14475038	     -0.26432288	      0.00000000	      0.50000000	      0.00000000	      0.25000000	     33.93242695	    -10.77833239	     -4.62209942	     51.38134526	      0.89677365	    -36.19901107	    -14.30749250	      0.00000000	      0.00000000	     72.40969983	      5.46757417	      4.58466561	     93.33601724	      1.62902081	     12.02450571	     -8.18264569	      0.00000000	      0.00000000	    -62.31549489	     -1.63178783	    -10.35244608	     52.78984130	    -15.64324341	     21.24763648	     65.02329878	     49.36114355	      0.00000000	      0.00000000	     50.05243264	    -23.49029449	     25.42610623	     80.17204672	     49.77527482	      0.00000000	      0.00000000
      7.55500000	    -19.95584787	      2.97789862	      5.35546014	      0.36832056	      1.14540212	     -0.26340592	      0.00000000	      0.50000000	      0.00000000	      0.25000000	     34.87481011	    -10.12782714	     -3.72134915	     53.76916198	      0.93844891	    -35.88098256	    -15.14361636	      0.00000000	      0.00000000	     71.49161662	      4.13262687	      3.62238064	     90.96493701	      1.58763765	     11.89955558	     -7.80717547	      0.00000000	      0.00000000	    -62.52723092	     -1.65219472	    -10.19826766	     52.98922842	    -15.53171868	     21.35310929	     64.98036721	     49.39444660	      0.00000000	      0.00000000	     50.05607219	    -23.69386956	     25.16849371	     80.59075982	     49.82626169	      0.00000000	      0.00000000
